<mxfile host="app.diagrams.net" modified="2020-07-21T05:40:40.448Z" agent="5.0 (Windows NT 10.0; Win64; x64) AppleWebKit/537.36 (KHTML, like Gecko) Chrome/84.0.4147.89 Safari/537.36" etag="VLomsaFpT-9lFb0irhbj" version="13.4.9" type="github">
  <diagram id="EDDF_HHRpwpnEUwHcXVp" name="Page-1">
    <mxGraphModel dx="782" dy="429" grid="1" gridSize="10" guides="1" tooltips="1" connect="1" arrows="1" fold="1" page="1" pageScale="1" pageWidth="827" pageHeight="1169" math="0" shadow="0">
      <root>
        <mxCell id="0" />
        <mxCell id="1" parent="0" />
        <mxCell id="d_cwnuiEnnp7uAsUjj89-1" value="GPU" style="html=1;fillColor=#5184F3;strokeColor=none;verticalAlign=top;labelPosition=center;verticalLabelPosition=bottom;align=center;spacingTop=-6;fontSize=11;fontStyle=1;fontColor=#999999;shape=mxgraph.gcp2.hexIcon;prIcon=gpu" vertex="1" parent="1">
          <mxGeometry x="260" y="150" width="66" height="58.5" as="geometry" />
        </mxCell>
      </root>
    </mxGraphModel>
  </diagram>
</mxfile>
